# xmcd
#
# Track frame offsets: 
#        150
#        15585
#        33964
#        50570
#        65775
#        82510
#        98964
#        113222
#        129688
#        146237
#        164194
#        180552
#        196259
#        211026
#
# Disc length: 3290 seconds
#
# Revision: 0
# Processed by: cddbd v1.5.2PL0 Copyright (c) Steve Scherf et al.
# Submitted via: ExactAudioCopy v0.99pb5
#
DISCID=c40cd80e
DTITLE=Drew MCalister - There to Here
DYEAR=2008
DGENRE=Country
TTITLE0=Somewhere Some How
TTITLE1=Counting Miles
TTITLE2=The Billy Joel Song
TTITLE3=Five Lines
TTITLE4=Five O'Clock Friends
TTITLE5=In 1965
TTITLE6=Katie's Song
TTITLE7=Part of the Family
TTITLE8=Take it on the Chin
TTITLE9=These Days
TTITLE10=My Town
TTITLE11=Walls
TTITLE12=Sometimes You Just Know
TTITLE13=Along for the Ride
EXTD=
EXTT0=
EXTT1=
EXTT2=
EXTT3=
EXTT4=
EXTT5=
EXTT6=
EXTT7=
EXTT8=
EXTT9=
EXTT10=
EXTT11=
EXTT12=
EXTT13=
PLAYORDER=
